<svg xmlns="http://www.w3.org/2000/svg" width="460" height="460" viewBox="0 0 460 460">
<g><path d="M 311.5,85.5 C 315.637,85.1463 319.637,85.6463 323.5,87C 373.932,131.241 395.098,187.074 387,254.5C 377.41,298.159 352.577,329.993 312.5,350C 252.118,372.776 200.285,360.609 157,313.5C 136.793,287.045 126.793,257.045 127,223.5C 131.524,195.341 146.358,174.841 171.5,162C 215.811,148.42 248.645,161.92 270,202.5C 273.29,212.607 274.623,222.941 274,233.5C 270.518,243.993 263.352,247.827 252.5,245C 242.683,238.597 238.85,229.431 241,217.5C 234.813,200.987 222.98,191.487 205.5,189C 182.723,187.635 167.89,197.801 161,219.5C 157.851,258.088 171.685,288.921 202.5,312C 234.494,332.181 267.827,334.515 302.5,319C 336.995,299.647 355.328,270.147 357.5,230.5C 356.468,182.659 338.302,142.659 303,110.5C 301.628,107.382 300.462,104.216 299.5,101C 300.399,93.2852 304.399,88.1185 311.5,85.5 Z"/></g>
<g><path d="M 182.5,99.5 C 239.149,94.7474 282.982,115.747 314,162.5C 328.622,187.611 334.289,214.611 331,243.5C 325.165,268.713 310.665,286.879 287.5,298C 254.471,309.198 225.971,302.364 202,277.5C 189.706,262.003 184.373,244.337 186,224.5C 187.586,222.33 188.92,219.996 190,217.5C 201.724,211.378 210.724,214.044 217,225.5C 216.494,246.29 225.661,260.79 244.5,269C 271.653,275.51 289.819,265.677 299,239.5C 301.841,201.354 288.007,170.854 257.5,148C 219.824,124.713 182.157,124.713 144.5,148C 109.762,175.515 96.2623,211.348 104,255.5C 110.777,293.062 128.444,324.395 157,349.5C 162.077,357.631 161.244,365.131 154.5,372C 148.612,373.576 142.612,373.909 136.5,373C 97.8739,340.255 76.0405,298.422 71,247.5C 66.1054,184.764 91.2721,138.931 146.5,110C 158.357,105.542 170.357,102.042 182.5,99.5 Z"/></g>
</svg>
